<svg xmlns="http://www.w3.org/2000/svg" xmlns:xlink="http://www.w3.org/1999/xlink" viewBox="0 0 700 348" width="700" height="348"><path d="M 126.500,165.000 C 129.190,167.577 129.000,166.000 131.500,167.000" stroke-width="5.378" stroke="black" fill="none" stroke-linecap="round"></path><path d="M 131.500,167.000 C 135.494,165.006 135.190,166.077 138.500,162.000" stroke-width="4.949" stroke="black" fill="none" stroke-linecap="round"></path><path d="M 138.500,162.000 C 142.182,158.305 141.994,158.506 144.500,154.000" stroke-width="4.489" stroke="black" fill="none" stroke-linecap="round"></path><path d="M 144.500,154.000 C 145.706,151.471 145.682,151.805 145.500,149.000" stroke-width="4.374" stroke="black" fill="none" stroke-linecap="round"></path><path d="M 145.500,149.000 C 145.800,144.300 145.206,145.471 143.500,142.000" stroke-width="4.536" stroke="black" fill="none" stroke-linecap="round"></path><path d="M 143.500,142.000 C 139.448,138.768 140.800,139.300 135.500,139.000" stroke-width="4.720" stroke="black" fill="none" stroke-linecap="round"></path><path d="M 135.500,139.000 C 130.850,140.711 130.948,139.268 126.500,143.000" stroke-width="4.442" stroke="black" fill="none" stroke-linecap="round"></path><path d="M 126.500,143.000 C 121.126,145.484 121.350,145.711 116.500,149.000" stroke-width="3.605" stroke="black" fill="none" stroke-linecap="round"></path><path d="M 116.500,149.000 C 107.498,154.366 108.626,154.984 101.500,162.000" stroke-width="2.833" stroke="black" fill="none" stroke-linecap="round"></path><path d="M 101.500,162.000 C 97.832,169.427 96.498,168.366 94.500,177.000" stroke-width="3.416" stroke="black" fill="none" stroke-linecap="round"></path><path d="M 94.500,177.000 C 91.459,181.887 92.332,181.927 90.500,187.000" stroke-width="3.954" stroke="black" fill="none" stroke-linecap="round"></path><path d="M 90.500,187.000 C 89.640,191.605 89.959,189.887 91.500,193.000" stroke-width="4.628" stroke="black" fill="none" stroke-linecap="round"></path><path d="M 91.500,193.000 C 95.357,194.179 93.640,194.605 98.500,193.000" stroke-width="4.821" stroke="black" fill="none" stroke-linecap="round"></path><path d="M 98.500,193.000 C 103.103,190.141 103.357,191.179 107.500,187.000" stroke-width="4.372" stroke="black" fill="none" stroke-linecap="round"></path><path d="M 107.500,187.000 C 110.143,185.160 110.103,185.141 112.500,183.000" stroke-width="4.117" stroke="black" fill="none" stroke-linecap="round"></path><path d="M 112.500,183.000 C 116.000,179.500 116.143,179.660 119.500,176.000" stroke-width="4.241" stroke="black" fill="none" stroke-linecap="round"></path><path d="M 119.500,176.000 C 122.833,173.260 122.500,173.000 125.500,170.000" stroke-width="4.402" stroke="black" fill="none" stroke-linecap="round"></path><path d="M 125.500,170.000 C 128.754,165.254 127.333,167.760 128.500,165.000" stroke-width="4.660" stroke="black" fill="none" stroke-linecap="round"></path><path d="M 128.500,165.000 C 126.101,166.713 128.254,164.754 124.500,169.000" stroke-width="5.168" stroke="black" fill="none" stroke-linecap="round"></path><path d="M 124.500,169.000 C 122.068,171.875 122.601,171.713 121.500,175.000" stroke-width="4.794" stroke="black" fill="none" stroke-linecap="round"></path><path d="M 121.500,175.000 C 120.814,178.946 121.068,177.375 122.500,180.000" stroke-width="5.153" stroke="black" fill="none" stroke-linecap="round"></path><path d="M 122.500,180.000 C 126.227,180.818 124.814,181.446 129.500,180.000" stroke-width="4.980" stroke="black" fill="none" stroke-linecap="round"></path><path d="M 129.500,180.000 C 132.260,178.833 132.227,179.318 134.500,177.000" stroke-width="4.822" stroke="black" fill="none" stroke-linecap="round"></path><path d="M 134.500,177.000 C 137.240,173.667 137.760,174.333 140.500,171.000" stroke-width="4.553" stroke="black" fill="none" stroke-linecap="round"></path><path d="M 140.500,171.000 C 143.500,167.500 142.740,169.167 145.500,168.000" stroke-width="4.963" stroke="black" fill="none" stroke-linecap="round"></path><path d="M 145.500,168.000 C 148.500,170.500 147.500,168.500 148.500,173.000" stroke-width="5.222" stroke="black" fill="none" stroke-linecap="round"></path><path d="M 148.500,173.000 C 147.724,176.443 148.500,175.500 145.500,178.000" stroke-width="5.076" stroke="black" fill="none" stroke-linecap="round"></path><path d="M 145.500,178.000 C 138.768,178.930 142.724,179.943 138.500,180.000" stroke-width="4.720" stroke="black" fill="none" stroke-linecap="round"></path><path d="M 138.500,180.000 C 141.638,182.260 138.268,180.930 144.500,182.000" stroke-width="5.211" stroke="black" fill="none" stroke-linecap="round"></path><path d="M 144.500,182.000 C 147.363,180.924 147.138,181.760 149.500,179.000" stroke-width="4.885" stroke="black" fill="none" stroke-linecap="round"></path><path d="M 149.500,179.000 C 151.876,175.887 152.363,176.424 154.500,173.000" stroke-width="4.625" stroke="black" fill="none" stroke-linecap="round"></path><path d="M 154.500,173.000 C 157.272,170.723 156.876,170.387 159.500,168.000" stroke-width="4.612" stroke="black" fill="none" stroke-linecap="round"></path><path d="M 159.500,168.000 C 163.500,162.000 161.772,165.223 163.500,162.000" stroke-width="4.803" stroke="black" fill="none" stroke-linecap="round"></path><path d="M 163.500,162.000 C 160.900,164.734 163.500,162.000 159.500,168.000" stroke-width="5.223" stroke="black" fill="none" stroke-linecap="round"></path><path d="M 159.500,168.000 C 158.710,172.068 157.900,171.734 157.500,176.000" stroke-width="4.674" stroke="black" fill="none" stroke-linecap="round"></path><path d="M 157.500,176.000 C 154.464,180.586 156.710,178.568 155.500,181.000" stroke-width="4.943" stroke="black" fill="none" stroke-linecap="round"></path><path d="M 155.500,181.000 C 158.949,178.273 156.964,181.586 162.500,178.000" stroke-width="5.223" stroke="black" fill="none" stroke-linecap="round"></path><path d="M 162.500,178.000 C 165.442,179.745 165.449,177.773 168.500,180.000" stroke-width="5.338" stroke="black" fill="none" stroke-linecap="round"></path><path d="M 168.500,180.000 C 171.995,180.461 171.442,180.245 174.500,179.000" stroke-width="5.195" stroke="black" fill="none" stroke-linecap="round"></path><path d="M 174.500,179.000 C 177.636,176.124 177.995,176.961 180.500,173.000" stroke-width="4.647" stroke="black" fill="none" stroke-linecap="round"></path><path d="M 180.500,173.000 C 183.286,170.198 183.136,170.124 185.500,167.000" stroke-width="4.558" stroke="black" fill="none" stroke-linecap="round"></path><path d="M 185.500,167.000 C 187.701,163.597 187.786,163.698 189.500,160.000" stroke-width="4.512" stroke="black" fill="none" stroke-linecap="round"></path><path d="M 189.500,160.000 C 191.243,157.568 190.701,157.597 191.500,155.000" stroke-width="4.720" stroke="black" fill="none" stroke-linecap="round"></path><path d="M 191.500,155.000 C 191.469,149.613 191.743,152.568 190.500,150.000" stroke-width="5.133" stroke="black" fill="none" stroke-linecap="round"></path><path d="M 190.500,150.000 C 188.031,153.325 188.969,150.613 186.500,157.000" stroke-width="4.946" stroke="black" fill="none" stroke-linecap="round"></path><path d="M 186.500,157.000 C 186.000,159.500 185.531,159.325 185.500,162.000" stroke-width="4.908" stroke="black" fill="none" stroke-linecap="round"></path><path d="M 185.500,162.000 C 184.500,164.492 185.000,164.500 184.500,167.000" stroke-width="4.883" stroke="black" fill="none" stroke-linecap="round"></path><path d="M 184.500,167.000 C 183.868,171.096 184.500,169.992 185.500,173.000" stroke-width="4.975" stroke="black" fill="none" stroke-linecap="round"></path><path d="M 185.500,173.000 C 188.222,174.621 186.868,174.596 190.500,174.000" stroke-width="5.249" stroke="black" fill="none" stroke-linecap="round"></path><path d="M 190.500,174.000 C 193.225,171.092 193.722,173.121 196.500,170.000" stroke-width="4.993" stroke="black" fill="none" stroke-linecap="round"></path><path d="M 196.500,170.000 C 199.500,170.000 199.225,169.092 202.500,170.000" stroke-width="5.270" stroke="black" fill="none" stroke-linecap="round"></path><path d="M 202.500,170.000 C 206.015,171.243 205.500,170.000 208.500,170.000" stroke-width="5.094" stroke="black" fill="none" stroke-linecap="round"></path><path d="M 208.500,170.000 C 210.938,165.644 212.015,168.243 214.500,164.000" stroke-width="4.622" stroke="black" fill="none" stroke-linecap="round"></path><path d="M 214.500,164.000 C 219.434,162.163 217.438,162.644 221.500,164.000" stroke-width="5.176" stroke="black" fill="none" stroke-linecap="round"></path><path d="M 221.500,164.000 C 222.959,167.943 223.934,166.163 223.500,172.000" stroke-width="5.239" stroke="black" fill="none" stroke-linecap="round"></path><path d="M 223.500,172.000 C 224.485,175.798 223.959,175.443 223.500,179.000" stroke-width="4.293" stroke="black" fill="none" stroke-linecap="round"></path><path d="M 223.500,179.000 C 221.694,182.147 222.485,182.298 219.500,185.000" stroke-width="3.993" stroke="black" fill="none" stroke-linecap="round"></path><path d="M 219.500,185.000 C 217.059,190.517 216.694,188.647 213.500,192.000" stroke-width="4.227" stroke="black" fill="none" stroke-linecap="round"></path><path d="M 213.500,192.000 C 209.040,192.053 211.059,193.017 207.500,190.000" stroke-width="4.545" stroke="black" fill="none" stroke-linecap="round"></path><path d="M 207.500,190.000 C 206.473,186.671 206.040,188.053 207.500,184.000" stroke-width="4.693" stroke="black" fill="none" stroke-linecap="round"></path><path d="M 207.500,184.000 C 209.410,179.809 208.973,180.171 212.500,177.000" stroke-width="4.508" stroke="black" fill="none" stroke-linecap="round"></path><path d="M 212.500,177.000 C 215.500,175.500 214.910,174.809 218.500,174.000" stroke-width="4.165" stroke="black" fill="none" stroke-linecap="round"></path><path d="M 218.500,174.000 C 221.412,172.287 221.500,172.500 224.500,171.000" stroke-width="4.022" stroke="black" fill="none" stroke-linecap="round"></path><path d="M 224.500,171.000 C 227.431,169.236 227.412,169.787 230.500,169.000" stroke-width="4.472" stroke="black" fill="none" stroke-linecap="round"></path></svg>